<svg class="animated" id="freepik_stories-junior-soccer" xmlns="http://www.w3.org/2000/svg" viewBox="0 0 500 500" version="1.1" xmlns:xlink="http://www.w3.org/1999/xlink" xmlns:svgjs="http://svgjs.com/svgjs"><style>svg#freepik_stories-junior-soccer:not(.animated) .animable {opacity: 0;}svg#freepik_stories-junior-soccer.animated #freepik--soccer-ball--inject-2 {animation: 3s Infinite  linear heartbeat;animation-delay: 0s;}            @keyframes heartbeat {                0% {                    transform: scale(1);                }                10% {                    transform: scale(1.1);                }                30% {                    transform: scale(1);                }                40% {                    transform: scale(1);                }                50% {                    transform: scale(1.1);                }                60% {                    transform: scale(1);                }                100% {                    transform: scale(1);                }            }        </style><g id="freepik--background-complete--inject-2" class="animable" style="transform-origin: 250px 228.23px;"><rect y="382.4" width="500" height="0.25" style="fill: rgb(235, 235, 235); transform-origin: 250px 382.525px;" id="elxd148qyq05" class="animable"></rect><rect x="416.78" y="398.49" width="33.12" height="0.25" style="fill: rgb(235, 235, 235); transform-origin: 433.34px 398.615px;" id="ele2qtch94m7q" class="animable"></rect><rect x="322.53" y="401.21" width="8.69" height="0.25" style="fill: rgb(235, 235, 235); transform-origin: 326.875px 401.335px;" id="ely77gdvx9wl" class="animable"></rect><rect x="396.59" y="389.21" width="19.19" height="0.25" style="fill: rgb(235, 235, 235); transform-origin: 406.185px 389.335px;" id="el15y7n7b77xuj" class="animable"></rect><rect x="52.46" y="390.89" width="43.19" height="0.25" style="fill: rgb(235, 235, 235); transform-origin: 74.055px 391.015px;" id="el9w5gcei6j8s" class="animable"></rect><rect x="104.56" y="390.89" width="6.33" height="0.25" style="fill: rgb(235, 235, 235); transform-origin: 107.725px 391.015px;" id="elpc74dpqg32" class="animable"></rect><rect x="131.47" y="395.11" width="93.68" height="0.25" style="fill: rgb(235, 235, 235); transform-origin: 178.31px 395.235px;" id="el6s5x958wvil" class="animable"></rect><path d="M237,337.8H43.91a5.71,5.71,0,0,1-5.7-5.71V60.66A5.71,5.71,0,0,1,43.91,55H237a5.71,5.71,0,0,1,5.71,5.71V332.09A5.71,5.71,0,0,1,237,337.8ZM43.91,55.2a5.46,5.46,0,0,0-5.45,5.46V332.09a5.46,5.46,0,0,0,5.45,5.46H237a5.47,5.47,0,0,0,5.46-5.46V60.66A5.47,5.47,0,0,0,237,55.2Z" style="fill: rgb(235, 235, 235); transform-origin: 140.46px 196.4px;" id="el2up98g0o15" class="animable"></path><path d="M453.31,337.8H260.21a5.72,5.72,0,0,1-5.71-5.71V60.66A5.72,5.72,0,0,1,260.21,55h193.1A5.71,5.71,0,0,1,459,60.66V332.09A5.71,5.71,0,0,1,453.31,337.8ZM260.21,55.2a5.47,5.47,0,0,0-5.46,5.46V332.09a5.47,5.47,0,0,0,5.46,5.46h193.1a5.47,5.47,0,0,0,5.46-5.46V60.66a5.47,5.47,0,0,0-5.46-5.46Z" style="fill: rgb(235, 235, 235); transform-origin: 356.75px 196.4px;" id="elmj5izmeru" class="animable"></path><path d="M160.39,129.8a4.84,4.84,0,0,1,6.22-4.63,10.21,10.21,0,0,1,10.12-11.71,10.71,10.71,0,0,1,1.89.17,8.94,8.94,0,0,1,16.57,4.52h.15a8.24,8.24,0,1,1,0,16.48H165.09A4.82,4.82,0,0,1,160.39,129.8Z" style="fill: rgb(240, 240, 240); transform-origin: 181.989px 121.989px;" id="elntajyahur1m" class="animable"></path><path d="M273.84,172.79a4.83,4.83,0,0,1,4.83-4.83,4.92,4.92,0,0,1,1.39.2,10.21,10.21,0,0,1,10.12-11.71,9.74,9.74,0,0,1,1.88.18,8.94,8.94,0,0,1,16.58,4.52h.15a8.24,8.24,0,0,1,0,16.48H278.54A4.82,4.82,0,0,1,273.84,172.79Z" style="fill: rgb(240, 240, 240); transform-origin: 295.435px 164.981px;" id="ellgc2npgmkjj" class="animable"></path><path d="M147.55,213.74a4.84,4.84,0,0,0-6.22-4.63,10.21,10.21,0,0,0-10.12-11.71,10.71,10.71,0,0,0-1.89.18,8.93,8.93,0,0,0-16.57,4.52h-.15a8.24,8.24,0,1,0,0,16.48h30.25A4.82,4.82,0,0,0,147.55,213.74Z" style="fill: rgb(240, 240, 240); transform-origin: 125.955px 205.926px;" id="elyqfx5uc8h9h" class="animable"></path><path d="M60.05,149a3,3,0,0,1,3.86-2.88,7,7,0,0,1-.07-.92,6.36,6.36,0,0,1,6.36-6.36,6.56,6.56,0,0,1,1.18.11,5.55,5.55,0,0,1,10.3,2.81h.09a5.13,5.13,0,1,1,0,10.25H63A3,3,0,0,1,60.05,149Z" style="fill: rgb(240, 240, 240); transform-origin: 73.5882px 144.143px;" id="elyeczgupy3de" class="animable"></path><path d="M441.08,180a3,3,0,0,0-3-3,2.76,2.76,0,0,0-.86.13,5.74,5.74,0,0,0,.07-.93,6.36,6.36,0,0,0-6.36-6.36,6.45,6.45,0,0,0-1.17.11,5.56,5.56,0,0,0-10.31,2.81h-.09a5.12,5.12,0,0,0,0,10.24h18.81A3,3,0,0,0,441.08,180Z" style="fill: rgb(240, 240, 240); transform-origin: 427.66px 175.139px;" id="elf4ulpci38ka" class="animable"></path><g id="el5md65cdeigg"><rect x="320.02" y="143.43" width="46.62" height="239.41" style="fill: rgb(224, 224, 224); transform-origin: 343.33px 263.135px; transform: rotate(180deg);" class="animable"></rect></g><polygon points="256.93 148.67 418.6 148.67 407.01 80.33 245.35 80.33 256.93 148.67" style="fill: rgb(230, 230, 230); transform-origin: 331.975px 114.5px;" id="eltme4i01diq" class="animable"></polygon><path d="M383.24,101.74a8.42,8.42,0,0,0,7.95,6.86,5.61,5.61,0,0,0,5.63-6.86,8.44,8.44,0,0,0-8-6.87A5.61,5.61,0,0,0,383.24,101.74Z" style="fill: rgb(245, 245, 245); transform-origin: 390.029px 101.736px;" id="el0ocvzrmo03z" class="animable"></path><path d="M364.58,101.74a8.44,8.44,0,0,0,8,6.86,5.6,5.6,0,0,0,5.62-6.86,8.42,8.42,0,0,0-8-6.87A5.62,5.62,0,0,0,364.58,101.74Z" style="fill: rgb(245, 245, 245); transform-origin: 371.391px 101.735px;" id="el164ickpkcqh" class="animable"></path><g id="el8r85tcyqi4f"><ellipse cx="352.72" cy="101.74" rx="6.27" ry="7.43" style="fill: rgb(245, 245, 245); transform-origin: 352.72px 101.74px; transform: rotate(-45.59deg);" class="animable"></ellipse></g><path d="M327.28,101.74a8.42,8.42,0,0,0,8,6.86,5.61,5.61,0,0,0,5.63-6.86,8.43,8.43,0,0,0-7.95-6.87A5.62,5.62,0,0,0,327.28,101.74Z" style="fill: rgb(245, 245, 245); transform-origin: 334.095px 101.734px;" id="el9aukckgo46u" class="animable"></path><path d="M308.63,101.74a8.42,8.42,0,0,0,7.95,6.86,5.61,5.61,0,0,0,5.63-6.86,8.44,8.44,0,0,0-8-6.87A5.61,5.61,0,0,0,308.63,101.74Z" style="fill: rgb(245, 245, 245); transform-origin: 315.419px 101.736px;" id="eldptjnl2ha4" class="animable"></path><path d="M290,101.74a8.44,8.44,0,0,0,8,6.86,5.61,5.61,0,0,0,5.62-6.86,8.42,8.42,0,0,0-7.95-6.87A5.62,5.62,0,0,0,290,101.74Z" style="fill: rgb(245, 245, 245); transform-origin: 296.81px 101.734px;" id="eluqdy163afn" class="animable"></path><g id="elnrjozr0597"><ellipse cx="278.11" cy="101.74" rx="6.27" ry="7.43" style="fill: rgb(245, 245, 245); transform-origin: 278.11px 101.74px; transform: rotate(-45.59deg);" class="animable"></ellipse></g><path d="M252.67,101.74a8.42,8.42,0,0,0,8,6.86,5.61,5.61,0,0,0,5.63-6.86,8.44,8.44,0,0,0-8-6.87A5.61,5.61,0,0,0,252.67,101.74Z" style="fill: rgb(245, 245, 245); transform-origin: 259.484px 101.735px;" id="elg3j7x5ur2ah" class="animable"></path><path d="M386,118.2a8.42,8.42,0,0,0,8,6.86,5.61,5.61,0,0,0,5.63-6.86,8.45,8.45,0,0,0-8-6.87A5.61,5.61,0,0,0,386,118.2Z" style="fill: rgb(245, 245, 245); transform-origin: 392.814px 118.195px;" id="el6m9t2xkeb6g" class="animable"></path><path d="M367.37,118.2a8.44,8.44,0,0,0,8,6.86A5.6,5.6,0,0,0,381,118.2a8.43,8.43,0,0,0-7.95-6.87A5.62,5.62,0,0,0,367.37,118.2Z" style="fill: rgb(245, 245, 245); transform-origin: 374.186px 118.195px;" id="elog44od0ug1" class="animable"></path><path d="M348.72,118.2a8.42,8.42,0,0,0,7.95,6.86,5.61,5.61,0,0,0,5.63-6.86,8.43,8.43,0,0,0-7.95-6.87A5.62,5.62,0,0,0,348.72,118.2Z" style="fill: rgb(245, 245, 245); transform-origin: 355.51px 118.195px;" id="elcexrh0btazt" class="animable"></path><path d="M330.07,118.2a8.42,8.42,0,0,0,7.95,6.86,5.61,5.61,0,0,0,5.63-6.86,8.45,8.45,0,0,0-8-6.87A5.62,5.62,0,0,0,330.07,118.2Z" style="fill: rgb(245, 245, 245); transform-origin: 336.86px 118.196px;" id="elkq2jtzxdecs" class="animable"></path><path d="M311.42,118.2a8.42,8.42,0,0,0,7.95,6.86A5.6,5.6,0,0,0,325,118.2a8.43,8.43,0,0,0-7.95-6.87A5.61,5.61,0,0,0,311.42,118.2Z" style="fill: rgb(245, 245, 245); transform-origin: 318.21px 118.195px;" id="elr0wmqewqn5b" class="animable"></path><path d="M292.76,118.2a8.43,8.43,0,0,0,8,6.86,5.61,5.61,0,0,0,5.62-6.86,8.43,8.43,0,0,0-7.95-6.87A5.62,5.62,0,0,0,292.76,118.2Z" style="fill: rgb(245, 245, 245); transform-origin: 299.57px 118.194px;" id="elj6cuvw4y8h" class="animable"></path><path d="M274.11,118.2a8.42,8.42,0,0,0,7.95,6.86,5.61,5.61,0,0,0,5.63-6.86,8.43,8.43,0,0,0-7.95-6.87A5.62,5.62,0,0,0,274.11,118.2Z" style="fill: rgb(245, 245, 245); transform-origin: 280.9px 118.195px;" id="elcqlj5s7k89p" class="animable"></path><path d="M255.46,118.2a8.42,8.42,0,0,0,8,6.86A5.61,5.61,0,0,0,269,118.2a8.45,8.45,0,0,0-8-6.87A5.61,5.61,0,0,0,255.46,118.2Z" style="fill: rgb(245, 245, 245); transform-origin: 262.229px 118.195px;" id="elium1ta6hbqb" class="animable"></path><path d="M388.82,134.66a8.42,8.42,0,0,0,7.95,6.86,5.6,5.6,0,0,0,5.62-6.86,8.42,8.42,0,0,0-7.95-6.86A5.6,5.6,0,0,0,388.82,134.66Z" style="fill: rgb(245, 245, 245); transform-origin: 395.605px 134.66px;" id="elgnnyojnmw3w" class="animable"></path><g id="elgq05o6yhpes"><ellipse cx="376.95" cy="134.66" rx="6.27" ry="7.43" style="fill: rgb(245, 245, 245); transform-origin: 376.95px 134.66px; transform: rotate(-45.59deg);" class="animable"></ellipse></g><path d="M351.51,134.66a8.42,8.42,0,0,0,7.95,6.86,5.61,5.61,0,0,0,5.63-6.86,8.42,8.42,0,0,0-7.95-6.86A5.61,5.61,0,0,0,351.51,134.66Z" style="fill: rgb(245, 245, 245); transform-origin: 358.3px 134.66px;" id="el2ob3e3o6rk7" class="animable"></path><g id="elarwng3cqpt"><ellipse cx="339.65" cy="134.66" rx="6.27" ry="7.43" style="fill: rgb(245, 245, 245); transform-origin: 339.65px 134.66px; transform: rotate(-45.6deg);" class="animable"></ellipse></g><path d="M314.2,134.66a8.44,8.44,0,0,0,8,6.86,5.6,5.6,0,0,0,5.62-6.86,8.42,8.42,0,0,0-7.95-6.86A5.61,5.61,0,0,0,314.2,134.66Z" style="fill: rgb(245, 245, 245); transform-origin: 321.011px 134.659px;" id="elg87i4i3xsak" class="animable"></path><path d="M295.55,134.66a8.42,8.42,0,0,0,7.95,6.86,5.61,5.61,0,0,0,5.63-6.86,8.42,8.42,0,0,0-7.95-6.86A5.61,5.61,0,0,0,295.55,134.66Z" style="fill: rgb(245, 245, 245); transform-origin: 302.34px 134.66px;" id="els2uiafqdyno" class="animable"></path><path d="M276.9,134.66a8.42,8.42,0,0,0,8,6.86,5.61,5.61,0,0,0,5.63-6.86,8.42,8.42,0,0,0-8-6.86A5.61,5.61,0,0,0,276.9,134.66Z" style="fill: rgb(245, 245, 245); transform-origin: 283.715px 134.66px;" id="elbb96oaxnx9l" class="animable"></path><path d="M258.25,134.66a8.42,8.42,0,0,0,7.95,6.86,5.61,5.61,0,0,0,5.63-6.86,8.44,8.44,0,0,0-8-6.86A5.6,5.6,0,0,0,258.25,134.66Z" style="fill: rgb(245, 245, 245); transform-origin: 265.039px 134.66px;" id="elg1fomt8ddb" class="animable"></path><polygon points="407.01 80.33 229.16 80.33 229.84 84.92 400.56 89.65 411.1 148.91 418.6 148.67 407.01 80.33" style="fill: rgb(240, 240, 240); transform-origin: 323.88px 114.62px;" id="el35y2eeboyc5" class="animable"></polygon><polygon points="407.01 80.33 422.42 86.96 428.28 138.47 418.6 148.67 407.01 80.33" style="fill: rgb(235, 235, 235); transform-origin: 417.645px 114.5px;" id="el1gbecxnvo01" class="animable"></polygon><polygon points="234.01 326.08 249.58 376.66 428.89 326.08 454.92 383.52 66.91 383.52 234.01 326.08" style="fill: rgb(224, 224, 224); transform-origin: 260.915px 354.8px;" id="el9uqezu04quf" class="animable"></polygon><polygon points="234.01 326.08 55.48 326.08 36.11 383.52 214.64 383.52 234.01 326.08" style="fill: rgb(235, 235, 235); transform-origin: 135.06px 354.8px;" id="elt5kzphcxh6" class="animable"></polygon><path d="M73.47,361.93,75.79,360a3.34,3.34,0,0,0,3.38,2.38c2.27,0,3.91-1.38,4.82-4.07L87.81,347H80.56l.84-2.5H91.49l-4.61,13.62c-1.52,4.48-4.45,6.68-8.54,6.68C76,364.82,74.13,363.79,73.47,361.93Z" style="fill: rgb(255, 255, 255); transform-origin: 82.48px 354.65px;" id="elwp2gmpbty" class="animable"></path><path d="M93.3,355.93l3.86-11.41H100l-3.83,11.3c-1.51,4.44-.15,6.45,3.46,6.45s6.35-2,7.86-6.45l3.83-11.3h2.78l-3.87,11.41c-2,5.83-6.19,8.89-11.49,8.89S91.32,361.76,93.3,355.93Z" style="fill: rgb(255, 255, 255); transform-origin: 103.335px 354.67px;" id="elmtszcypa8a" class="animable"></path><path d="M137.25,344.52l-6.8,20.07H128.1l-7-15-5.07,15H113.2l6.8-20.07h2.35l7,15,5.07-15Z" style="fill: rgb(255, 255, 255); transform-origin: 125.225px 354.555px;" id="elftc7ny1j8it" class="animable"></path><path d="M143.26,344.52h2.87l-6.8,20.07h-2.87Z" style="fill: rgb(255, 255, 255); transform-origin: 141.295px 354.555px;" id="eluq54335j58" class="animable"></path><path d="M147.11,354.56a15.51,15.51,0,0,1,14.17-10.27c6.1,0,9.15,4.36,7.15,10.27a15.45,15.45,0,0,1-14.11,10.26C148.16,364.82,145.12,360.44,147.11,354.56Zm18.46,0c1.5-4.45-.71-7.71-5.16-7.71A11.47,11.47,0,0,0,150,354.56c-1.51,4.44.71,7.71,5.21,7.71A11.49,11.49,0,0,0,165.57,354.56Z" style="fill: rgb(255, 255, 255); transform-origin: 157.772px 354.555px;" id="el7v76omvj55" class="animable"></path><path d="M182.82,364.59l-2.23-6.16c-.41,0-.85.06-1.28.06h-5l-2.07,6.1h-2.87l6.8-20.07H184c5.21,0,7.47,2.64,6,7a9.9,9.9,0,0,1-6.56,6.34l2.48,6.73Zm4.35-13.07c1-2.87-.4-4.5-4.06-4.5h-4.88l-3.06,9h4.88C183.71,356.05,186.2,354.39,187.17,351.52Z" style="fill: rgb(255, 255, 255); transform-origin: 179.905px 354.555px;" id="elr457hs017h9" class="animable"></path><polygon points="428.89 326.08 250.36 326.08 230.99 383.52 409.52 383.52 428.89 326.08" style="fill: rgb(235, 235, 235); transform-origin: 329.94px 354.8px;" id="el565ovm0nqrp" class="animable"></polygon><path d="M269.58,360.81l1.78-2.19a7.29,7.29,0,0,0,5.71,2.27c3.39,0,5.29-1.32,5.87-3,1.63-4.79-11.29-1.76-8.82-9.06,1-3,4.26-5.61,9.42-5.61a8.85,8.85,0,0,1,5.72,1.74l-1.69,2.25a7.62,7.62,0,0,0-4.84-1.6c-3.34,0-5.24,1.4-5.82,3.11-1.63,4.8,11.28,1.8,8.83,9-1,3-4.3,5.59-9.48,5.59C273.26,363.28,270.66,362.27,269.58,360.81Z" style="fill: rgb(255, 255, 255); transform-origin: 279.42px 353.26px;" id="el930c4l4r4fr" class="animable"></path><path d="M289.75,353.23a15.18,15.18,0,0,1,13.86-10c6,0,8.95,4.27,7,10a15.12,15.12,0,0,1-13.8,10C290.78,363.28,287.8,359,289.75,353.23Zm18.05,0c1.47-4.34-.69-7.54-5-7.54a11.25,11.25,0,0,0-10.21,7.54c-1.47,4.35.7,7.55,5.1,7.55A11.22,11.22,0,0,0,307.8,353.23Z" style="fill: rgb(255, 255, 255); transform-origin: 300.182px 353.23px;" id="el7nwvkp617cd" class="animable"></path><path d="M313.29,353.23a15.1,15.1,0,0,1,13.8-10c3,0,5.32,1,6.43,3.06L331.09,348a5.08,5.08,0,0,0-4.73-2.33,11.28,11.28,0,0,0-10.26,7.54c-1.48,4.35.72,7.55,5.15,7.55a10.15,10.15,0,0,0,6.32-2.36l1.22,1.77a13.48,13.48,0,0,1-8.53,3.09C314.32,363.28,311.33,359,313.29,353.23Z" style="fill: rgb(255, 255, 255); transform-origin: 323.106px 353.245px;" id="elfm3xo59hwi" class="animable"></path><path d="M333.14,353.23a15.1,15.1,0,0,1,13.8-10c3,0,5.31,1,6.42,3.06L350.94,348a5.09,5.09,0,0,0-4.73-2.33,11.29,11.29,0,0,0-10.27,7.54c-1.47,4.35.72,7.55,5.15,7.55a10.13,10.13,0,0,0,6.32-2.36l1.23,1.77a13.5,13.5,0,0,1-8.53,3.09C334.17,363.28,331.17,359,333.14,353.23Z" style="fill: rgb(255, 255, 255); transform-origin: 342.949px 353.245px;" id="el69tsznrcvfb" class="animable"></path><path d="M366.74,360.61l-.82,2.44H351.68l6.65-19.63h13.84l-.82,2.44H360.3l-2,6h9.84l-.81,2.38h-9.84l-2.14,6.34Z" style="fill: rgb(255, 255, 255); transform-origin: 361.925px 353.235px;" id="elwubgczs4k0i" class="animable"></path><path d="M383.57,363.05l-2.19-6c-.4,0-.83.06-1.25.06h-4.85l-2,6h-2.8l6.65-19.63h7.65c5.1,0,7.31,2.58,5.87,6.84a9.7,9.7,0,0,1-6.42,6.2l2.42,6.59Zm4.25-12.79c.95-2.8-.38-4.4-4-4.4h-4.77l-3,8.83h4.77C384.44,354.69,386.87,353.07,387.82,350.26Z" style="fill: rgb(255, 255, 255); transform-origin: 380.781px 353.295px;" id="el5jl5ipnfv9e" class="animable"></path></g><g id="freepik--Shadow--inject-2" class="animable" style="transform-origin: 250px 416.24px;"><ellipse id="freepik--path--inject-2" cx="250" cy="416.24" rx="193.89" ry="11.32" style="fill: rgb(245, 245, 245); transform-origin: 250px 416.24px;" class="animable"></ellipse></g><g id="freepik--Goal--inject-2" class="animable" style="transform-origin: 260.971px 286.465px;"><path d="M403.91,300.87a.49.49,0,0,0,.12-.48.48.48,0,0,0-.2-.26l-13-117.53a.49.49,0,0,0-.49-.45h-58l-.07-.66a.5.5,0,0,0-1,.12l.07.54h-89.6l-.13-.69a.51.51,0,0,0-.59-.4.5.5,0,0,0-.39.59l.1.5H111.44a.5.5,0,0,0-.4.21.49.49,0,0,0-.07.44l6.94,22.55c.19,1,2.59,14.24-1,26l-4.47-24.45a.5.5,0,1,0-1,.18l4.79,26.25a26.47,26.47,0,0,1-4.68,8.18.49.49,0,0,0,0,.7.51.51,0,0,0,.71-.05,26.85,26.85,0,0,0,4.26-7L121.37,261a14.19,14.19,0,0,1-9.37,3.25.5.5,0,0,0-.5.5.5.5,0,0,0,.5.5,15.23,15.23,0,0,0,9.57-3.11l7.08,38.71a61.75,61.75,0,0,1-17.87,4.18.5.5,0,0,0-.46.54.51.51,0,0,0,.54.46,62.88,62.88,0,0,0,18-4.17l9.08,49.67a133.44,133.44,0,0,1-27.77,6.72.5.5,0,0,0-.43.56.48.48,0,0,0,.56.43,134.16,134.16,0,0,0,27.82-6.72L144.37,387H111.44a.5.5,0,0,0-.5.5.51.51,0,0,0,.5.5H413a.48.48,0,0,0,.37-.17.5.5,0,0,0,.13-.39ZM242.1,387l-4.82-21.13a339.84,339.84,0,0,0,39.77,3.84L280.39,387Zm-34.65,0-7.91-29.54a298.8,298.8,0,0,0,36.67,8.24l4.87,21.3Zm-46.28-44.58c4.51,2.42,17.22,8.73,37.24,14.71l8,29.87H174.9ZM145.7,292.16a1.53,1.53,0,0,1,.16-.13c2,.5,16.06,3.9,37.21,7.8l15,56.13c-21.16-6.37-34-13.07-37.36-14.95Zm-26.61-86.38c3.47.43,18.38,2.21,39.9,4.17l11,41.24a396.45,396.45,0,0,1-39.86-9.41Zm278.33,45.3,5.41,49.14q-2.59.78-5.25,1.49L392.92,252c1.43-.28,2.86-.55,4.29-.85A.41.41,0,0,0,397.42,251.08ZM396.6,302c-6.71,1.79-13.65,3.28-20.77,4.52l-4.78-50.63q10.33-1.59,20.89-3.63Zm-21.75,4.7c-8.92,1.52-18.09,2.63-27.41,3.41l-5.93-50.46q14-1.41,28.55-3.6ZM305,311.46c-13-.16-26-.79-38.5-1.75l-9.22-47.64c12.58.5,26.05.66,40.23.3Zm-6.48-49.12c13.43-.36,27.48-1.19,42-2.63l5.94,50.45c-13.34,1.07-26.94,1.45-40.46,1.31Zm-33.05,47.29c-14.73-1.14-28.9-2.72-42-4.47L212.8,258.67c12.76,1.45,27.36,2.68,43.43,3.35ZM222.36,305c-14.34-1.94-27.39-4.09-38.5-6.11l-12.45-46.43c10.71,2,23.2,4,37.17,5.7l3.17.37Zm.26,1.14L236,364.61a295.94,295.94,0,0,1-36.73-8.32L184.16,300C195.29,302.06,208.34,304.21,222.62,306.15Zm1.06.14c4.27.57,8.65,1.13,13.12,1.65,9,1.05,18.68,2,28.85,2.8l11.2,57.92A339.69,339.69,0,0,1,237,364.78Zm43,4.53c12.28.91,25.23,1.54,38.45,1.68l8.51,55.73c-7.09.46-14.63.71-22.65.71-4.47,0-8.84-.09-13.11-.24Zm39.47,1.69c1.53,0,3.06,0,4.6,0,11.87,0,23.91-.42,35.81-1.38l6.11,51.93a276,276,0,0,1-38,5.07Zm41.41-1.44c9.26-.78,18.43-1.89,27.38-3.41l4.54,47.93a196.9,196.9,0,0,1-25.82,7.29Zm-6.17-52.44-5.28-44.87c10.43-.92,20.38-2.16,29.59-3.77L370,255Q355.42,257.24,341.39,258.63Zm-1,.09c-14.55,1.43-28.62,2.26-42.05,2.62l-6.94-45.45c15-.21,29.79-.85,43.71-2Zm-43.06,2.65c-14.2.36-27.68.2-40.27-.31l-8.81-45.55c13.94.41,28.14.58,42.14.4ZM256,261c-16.1-.68-30.71-1.92-43.47-3.38l-10.11-44.3c14.14.91,29.29,1.68,44.77,2.15Zm-44.52-3.5-2.78-.33c-14.17-1.71-26.81-3.75-37.6-5.78l-11.08-41.35c12,1.09,26.11,2.23,41.35,3.21Zm-41.19-5.25,12.45,46.45c-22.29-4.09-36.46-7.6-36.92-7.72a.51.51,0,0,0-.46.12h0l-14.84-48.19C134.09,244,148.3,248.09,170.32,252.26ZM278.07,369.71q6.31.23,12.92.23c8.07,0,15.66-.26,22.8-.72L316.5,387H281.41Zm36.72-.56a276.23,276.23,0,0,0,38-5.08L355.48,387h-38Zm39-5.29a197.13,197.13,0,0,0,25.8-7.26L382.44,387H356.49Zm26.77-7.61a127.14,127.14,0,0,0,20.28-9.34l3.76,40H383.45Zm-.09-1-4.52-47.74c7.1-1.24,14-2.74,20.77-4.52l4,42.84A124.43,124.43,0,0,1,380.45,355.24Zm17.23-52.51q2.65-.72,5.26-1.5l4.45,40.35a.5.5,0,0,0-.48.09,47.49,47.49,0,0,1-5.24,3.58Zm-7.75-119.58,7.39,67.1a.47.47,0,0,0-.31-.05c-1.4.29-2.79.56-4.18.83l-.93-9.94a.51.51,0,0,0-.55-.45.51.51,0,0,0-.45.55l.94,10q-10.54,2.06-20.89,3.65l-4.26-45.06a183.47,183.47,0,0,0,24.87-6.07.5.5,0,0,0-.32-1,182.22,182.22,0,0,1-24.64,6l-2.32-24.46a.5.5,0,1,0-1,.1L365.61,209c-9.22,1.62-19.17,2.86-29.61,3.78l-3.49-29.62ZM335,212.86c-13.94,1.19-28.72,1.83-43.75,2l-4.85-31.75h45.1Zm-49.59-29.71s0,.06,0,.09l4.84,31.68c-14,.18-28.23,0-42.19-.41L242,183.15ZM247,214.48c-15.5-.48-30.66-1.25-44.82-2.16l-6.66-29.17H241Zm-52.48-31.33a.57.57,0,0,0,0,.13l6.61,29c-15.27-1-29.35-2.13-41.4-3.23l-6.4-23.88a.5.5,0,0,0-.61-.36.51.51,0,0,0-.35.62l6.3,23.53c-22.43-2.06-37.59-3.91-39.94-4.2l-6.65-21.58Zm-77.22,50.23c2.84-7.91,2.77-16.8,2.3-22.47l9.66,31.37c-.07,1.21-.84,12-7,18Zm5.13,28.06c5.3-4.75,7-12.67,7.58-16.71l14.51,47.08a61.65,61.65,0,0,1-15,8.69Zm7.32,40.06a63.54,63.54,0,0,0,15.08-8.66l14.66,47.58a.66.66,0,0,0-.26.11c-.1.09-6.81,5.58-20.4,10.68ZM139,352.2c12.36-4.61,19.17-9.59,20.58-10.68l.29.16,14,45.28H145.39ZM405.58,387l-3.81-40.61a50.58,50.58,0,0,0,5.72-3.87l4.9,44.48Z" style="fill: rgb(38, 50, 56); transform-origin: 261.619px 284.523px;" id="elquko5msm2j" class="animable"></path><g id="elxasn06may4g"><g style="opacity: 0.6; transform-origin: 261.619px 284.523px;" class="animable"><path d="M403.91,300.87a.49.49,0,0,0,.12-.48.48.48,0,0,0-.2-.26l-13-117.53a.49.49,0,0,0-.49-.45h-58l-.07-.66a.5.5,0,0,0-1,.12l.07.54h-89.6l-.13-.69a.51.51,0,0,0-.59-.4.5.5,0,0,0-.39.59l.1.5H111.44a.5.5,0,0,0-.4.21.49.49,0,0,0-.07.44l6.94,22.55c.19,1,2.59,14.24-1,26l-4.47-24.45a.5.5,0,1,0-1,.18l4.79,26.25a26.47,26.47,0,0,1-4.68,8.18.49.49,0,0,0,0,.7.51.51,0,0,0,.71-.05,26.85,26.85,0,0,0,4.26-7L121.37,261a14.19,14.19,0,0,1-9.37,3.25.5.5,0,0,0-.5.5.5.5,0,0,0,.5.5,15.23,15.23,0,0,0,9.57-3.11l7.08,38.71a61.75,61.75,0,0,1-17.87,4.18.5.5,0,0,0-.46.54.51.51,0,0,0,.54.46,62.88,62.88,0,0,0,18-4.17l9.08,49.67a133.44,133.44,0,0,1-27.77,6.72.5.5,0,0,0-.43.56.48.48,0,0,0,.56.43,134.16,134.16,0,0,0,27.82-6.72L144.37,387H111.44a.5.5,0,0,0-.5.5.51.51,0,0,0,.5.5H413a.48.48,0,0,0,.37-.17.5.5,0,0,0,.13-.39ZM242.1,387l-4.82-21.13a339.84,339.84,0,0,0,39.77,3.84L280.39,387Zm-34.65,0-7.91-29.54a298.8,298.8,0,0,0,36.67,8.24l4.87,21.3Zm-46.28-44.58c4.51,2.42,17.22,8.73,37.24,14.71l8,29.87H174.9ZM145.7,292.16a1.53,1.53,0,0,1,.16-.13c2,.5,16.06,3.9,37.21,7.8l15,56.13c-21.16-6.37-34-13.07-37.36-14.95Zm-26.61-86.38c3.47.43,18.38,2.21,39.9,4.17l11,41.24a396.45,396.45,0,0,1-39.86-9.41Zm278.33,45.3,5.41,49.14q-2.59.78-5.25,1.49L392.92,252c1.43-.28,2.86-.55,4.29-.85A.41.41,0,0,0,397.42,251.08ZM396.6,302c-6.71,1.79-13.65,3.28-20.77,4.52l-4.78-50.63q10.33-1.59,20.89-3.63Zm-21.75,4.7c-8.92,1.52-18.09,2.63-27.41,3.41l-5.93-50.46q14-1.41,28.55-3.6ZM305,311.46c-13-.16-26-.79-38.5-1.75l-9.22-47.64c12.58.5,26.05.66,40.23.3Zm-6.48-49.12c13.43-.36,27.48-1.19,42-2.63l5.94,50.45c-13.34,1.07-26.94,1.45-40.46,1.31Zm-33.05,47.29c-14.73-1.14-28.9-2.72-42-4.47L212.8,258.67c12.76,1.45,27.36,2.68,43.43,3.35ZM222.36,305c-14.34-1.94-27.39-4.09-38.5-6.11l-12.45-46.43c10.71,2,23.2,4,37.17,5.7l3.17.37Zm.26,1.14L236,364.61a295.94,295.94,0,0,1-36.73-8.32L184.16,300C195.29,302.06,208.34,304.21,222.62,306.15Zm1.06.14c4.27.57,8.65,1.13,13.12,1.65,9,1.05,18.68,2,28.85,2.8l11.2,57.92A339.69,339.69,0,0,1,237,364.78Zm43,4.53c12.28.91,25.23,1.54,38.45,1.68l8.51,55.73c-7.09.46-14.63.71-22.65.71-4.47,0-8.84-.09-13.11-.24Zm39.47,1.69c1.53,0,3.06,0,4.6,0,11.87,0,23.91-.42,35.81-1.38l6.11,51.93a276,276,0,0,1-38,5.07Zm41.41-1.44c9.26-.78,18.43-1.89,27.38-3.41l4.54,47.93a196.9,196.9,0,0,1-25.82,7.29Zm-6.17-52.44-5.28-44.87c10.43-.92,20.38-2.16,29.59-3.77L370,255Q355.42,257.24,341.39,258.63Zm-1,.09c-14.55,1.43-28.62,2.26-42.05,2.62l-6.94-45.45c15-.21,29.79-.85,43.71-2Zm-43.06,2.65c-14.2.36-27.68.2-40.27-.31l-8.81-45.55c13.94.41,28.14.58,42.14.4ZM256,261c-16.1-.68-30.71-1.92-43.47-3.38l-10.11-44.3c14.14.91,29.29,1.68,44.77,2.15Zm-44.52-3.5-2.78-.33c-14.17-1.71-26.81-3.75-37.6-5.78l-11.08-41.35c12,1.09,26.11,2.23,41.35,3.21Zm-41.19-5.25,12.45,46.45c-22.29-4.09-36.46-7.6-36.92-7.72a.51.51,0,0,0-.46.12h0l-14.84-48.19C134.09,244,148.3,248.09,170.32,252.26ZM278.07,369.71q6.31.23,12.92.23c8.07,0,15.66-.26,22.8-.72L316.5,387H281.41Zm36.72-.56a276.23,276.23,0,0,0,38-5.08L355.48,387h-38Zm39-5.29a197.13,197.13,0,0,0,25.8-7.26L382.44,387H356.49Zm26.77-7.61a127.14,127.14,0,0,0,20.28-9.34l3.76,40H383.45Zm-.09-1-4.52-47.74c7.1-1.24,14-2.74,20.77-4.52l4,42.84A124.43,124.43,0,0,1,380.45,355.24Zm17.23-52.51q2.65-.72,5.26-1.5l4.45,40.35a.5.5,0,0,0-.48.09,47.49,47.49,0,0,1-5.24,3.58Zm-7.75-119.58,7.39,67.1a.47.47,0,0,0-.31-.05c-1.4.29-2.79.56-4.18.83l-.93-9.94a.51.51,0,0,0-.55-.45.51.51,0,0,0-.45.55l.94,10q-10.54,2.06-20.89,3.65l-4.26-45.06a183.47,183.47,0,0,0,24.87-6.07.5.5,0,0,0-.32-1,182.22,182.22,0,0,1-24.64,6l-2.32-24.46a.5.5,0,1,0-1,.1L365.61,209c-9.22,1.62-19.17,2.86-29.61,3.78l-3.49-29.62ZM335,212.86c-13.94,1.19-28.72,1.83-43.75,2l-4.85-31.75h45.1Zm-49.59-29.71s0,.06,0,.09l4.84,31.68c-14,.18-28.23,0-42.19-.41L242,183.15ZM247,214.48c-15.5-.48-30.66-1.25-44.82-2.16l-6.66-29.17H241Zm-52.48-31.33a.57.57,0,0,0,0,.13l6.61,29c-15.27-1-29.35-2.13-41.4-3.23l-6.4-23.88a.5.5,0,0,0-.61-.36.51.51,0,0,0-.35.62l6.3,23.53c-22.43-2.06-37.59-3.91-39.94-4.2l-6.65-21.58Zm-77.22,50.23c2.84-7.91,2.77-16.8,2.3-22.47l9.66,31.37c-.07,1.21-.84,12-7,18Zm5.13,28.06c5.3-4.75,7-12.67,7.58-16.71l14.51,47.08a61.65,61.65,0,0,1-15,8.69Zm7.32,40.06a63.54,63.54,0,0,0,15.08-8.66l14.66,47.58a.66.66,0,0,0-.26.11c-.1.09-6.81,5.58-20.4,10.68ZM139,352.2c12.36-4.61,19.17-9.59,20.58-10.68l.29.16,14,45.28H145.39ZM405.58,387l-3.81-40.61a50.58,50.58,0,0,0,5.72-3.87l4.9,44.48Z" style="fill: rgb(255, 255, 255); transform-origin: 261.619px 284.523px;" id="elvhocfr3dkrf" class="animable"></path></g></g><path d="M390.38,393.28a3,3,0,0,1-3-3V185.65H114.44V390.28a3,3,0,0,1-6,0V182.65a3,3,0,0,1,3-3H390.38a3,3,0,0,1,3,3V390.28A3,3,0,0,1,390.38,393.28Z" style="fill: rgb(64, 123, 255); transform-origin: 250.91px 286.465px;" id="elevm5zuiyom8" class="animable"></path><g id="elc056nks3yzs"><g style="opacity: 0.5; transform-origin: 250.91px 286.465px;" class="animable"><path d="M390.38,393.28a3,3,0,0,1-3-3V185.65H114.44V390.28a3,3,0,0,1-6,0V182.65a3,3,0,0,1,3-3H390.38a3,3,0,0,1,3,3V390.28A3,3,0,0,1,390.38,393.28Z" style="fill: rgb(255, 255, 255); transform-origin: 250.91px 286.465px;" id="elhshdv3cfd5" class="animable"></path></g></g></g><g id="freepik--Plants--inject-2" class="animable" style="transform-origin: 249.07px 404.615px;"><path d="M84.44,419.17h36.43a27,27,0,0,0-10.7-1.91s3.94-5.91,2.35-7.72-5.54,3.87-5.54,3.87,2-8.49-2-9.85-4.75,9.85-4.75,9.85-3.56-5.9-5.93-4.79-.92,8.46-.92,8.46A11.79,11.79,0,0,0,84.44,419.17Z" style="fill: rgb(64, 123, 255); transform-origin: 102.655px 411.308px;" id="ela4hggnbhr9" class="animable"></path><path d="M62.16,402.08H34.24a20.73,20.73,0,0,1,8.2-1.47s-3-4.52-1.8-5.91,4.24,3,4.24,3-1.51-6.5,1.52-7.55S50,397.66,50,397.66s2.73-4.51,4.55-3.67.7,6.49.7,6.49A9,9,0,0,1,62.16,402.08Z" style="fill: rgb(64, 123, 255); transform-origin: 48.2px 396.07px;" id="el2ld73yvfz1f" class="animable"></path><path d="M463.9,411.31H436a20.73,20.73,0,0,1,8.2-1.47s-3-4.53-1.8-5.91,4.25,3,4.25,3-1.52-6.51,1.51-7.55,3.64,7.55,3.64,7.55,2.73-4.52,4.55-3.67.7,6.49.7,6.49A9,9,0,0,1,463.9,411.31Z" style="fill: rgb(64, 123, 255); transform-origin: 449.95px 405.301px;" id="el1wrhkywqnfd" class="animable"></path><g id="elzixpmvbeit"><g style="opacity: 0.3; transform-origin: 249.07px 404.615px;" class="animable"><path d="M84.44,419.17h36.43a27,27,0,0,0-10.7-1.91s3.94-5.91,2.35-7.72-5.54,3.87-5.54,3.87,2-8.49-2-9.85-4.75,9.85-4.75,9.85-3.56-5.9-5.93-4.79-.92,8.46-.92,8.46A11.79,11.79,0,0,0,84.44,419.17Z" style="fill: rgb(255, 255, 255); transform-origin: 102.655px 411.308px;" id="eled41sno3s2" class="animable"></path><path d="M62.16,402.08H34.24a20.73,20.73,0,0,1,8.2-1.47s-3-4.52-1.8-5.91,4.24,3,4.24,3-1.51-6.5,1.52-7.55S50,397.66,50,397.66s2.73-4.51,4.55-3.67.7,6.49.7,6.49A9,9,0,0,1,62.16,402.08Z" style="fill: rgb(255, 255, 255); transform-origin: 48.2px 396.07px;" id="eli7vvy4kh1ok" class="animable"></path><path d="M463.9,411.31H436a20.73,20.73,0,0,1,8.2-1.47s-3-4.53-1.8-5.91,4.25,3,4.25,3-1.52-6.51,1.51-7.55,3.64,7.55,3.64,7.55,2.73-4.52,4.55-3.67.7,6.49.7,6.49A9,9,0,0,1,463.9,411.31Z" style="fill: rgb(255, 255, 255); transform-origin: 449.95px 405.301px;" id="elussq0ba2gtk" class="animable"></path></g></g></g><g id="freepik--character-2--inject-2" class="animable" style="transform-origin: 332.017px 312.015px;"><g id="freepik--group--inject-2" class="animable" style="transform-origin: 332.017px 312.015px;"><path d="M320.91,328.6s-21.28,5.76-37.53,28.89c-.87,1.23-1.71,2.5-2.54,3.83A94,94,0,0,0,271,382.65l-4.65-2.7a96,96,0,0,1,5.18-24c.62-1.75,1.3-3.53,2.07-5.33,5.72-13.46,15.9-27.9,34-34.53Z" style="fill: rgb(235, 179, 118); transform-origin: 293.63px 349.37px;" id="eljurzkufq4" class="animable"></path><path d="M283.38,357.49c-.87,1.23-1.71,2.5-2.54,3.83A94,94,0,0,0,271,382.65l-4.65-2.7a96,96,0,0,1,5.18-24c.62-1.75,1.3-3.53,2.07-5.33Z" style="fill: rgb(38, 50, 56); transform-origin: 274.865px 366.635px;" id="eldym7j4ge2h" class="animable"></path><g id="el7upkeyjokdi"><path d="M280.84,361.32A94,94,0,0,0,271,382.65l-4.65-2.7a96,96,0,0,1,5.18-24C274.61,357.71,277.93,359.63,280.84,361.32Z" style="fill: rgb(255, 255, 255); opacity: 0.3; transform-origin: 273.595px 369.3px;" class="animable"></path></g><path d="M357.79,382.76c.33,15.53,1.3,26.31,1.3,26.31H353c-2.28-8.47-4.21-17.36-5.82-26.07a560.41,560.41,0,0,1-7.42-58.55l21,1.06C357.8,345.19,357.45,366.56,357.79,382.76Z" style="fill: rgb(235, 179, 118); transform-origin: 350.26px 366.76px;" id="el0qw8kstmh01q" class="animable"></path><path d="M359.09,409.07H353c-1.85-6.87-3.47-14-4.87-21.11-.33-1.66-.65-3.31-.95-5,3.11-.11,7.09-.19,10.66-.24,0,2.06.1,4,.16,5.92C358.36,401,359.09,409.07,359.09,409.07Z" style="fill: rgb(38, 50, 56); transform-origin: 353.135px 395.895px;" id="elcbx3roiyl59" class="animable"></path><g id="els8fxolum6o"><path d="M359.09,409.07H353c-1.85-6.87-3.47-14-4.87-21.11,2.89.18,6.78.44,9.87.72C358.36,401,359.09,409.07,359.09,409.07Z" style="fill: rgb(255, 255, 255); opacity: 0.3; transform-origin: 353.61px 398.515px;" class="animable"></path></g><path d="M336.28,254.68c-3.58-1.68-14-23.54-15.59-35.75l-3.93,2.58s2.1,30.67,14.55,47.3S336.28,254.68,336.28,254.68Z" style="fill: rgb(235, 179, 118); transform-origin: 327.634px 246.336px;" id="elyivhtug7pnd" class="animable"></path><path d="M368.32,261.39c3.93.4,24.07-13,31.74-22.67l2,4.23s-17.55,25.24-36.77,33.11S368.32,261.39,368.32,261.39Z" style="fill: rgb(235, 179, 118); transform-origin: 379.764px 258.224px;" id="el3bjjdeqf8n1" class="animable"></path><path d="M366.88,280.16c-.29,4.27-.73,9-1.37,14-.7,5.44-1.63,11.14-2.89,16.72l-45.71-7.12s10.37-25.57,11.66-40.56a7.75,7.75,0,0,1,6.59-7,48,48,0,0,1,12.41.1c14,1.7,20,6,20,6S367.63,269.7,366.88,280.16Z" style="fill: rgb(38, 50, 56); transform-origin: 342.241px 283.363px;" id="elzxfwom24mb" class="animable"></path><g id="elvatu5ro9xn"><path d="M366.88,280.16c-.29,4.27-.73,9-1.37,14-.7,5.44-1.63,11.14-2.89,16.72l-45.71-7.12s10.37-25.57,11.66-40.56a7.75,7.75,0,0,1,6.59-7,48,48,0,0,1,12.41.1c14,1.7,20,6,20,6S367.63,269.7,366.88,280.16Z" style="fill: rgb(255, 255, 255); opacity: 0.3; transform-origin: 342.241px 283.363px;" class="animable"></path></g><path d="M347.36,251.87a6.62,6.62,0,0,1-2.22,5.28A9.45,9.45,0,0,1,344,258h0a7.89,7.89,0,0,0,8.37,4l5.57-1,1.22-.23a11.82,11.82,0,0,1,0-9.67,16.06,16.06,0,0,1,2.73-4.3l-10.84.56-4.94.25A10.37,10.37,0,0,1,347.36,251.87Z" style="fill: rgb(235, 179, 118); transform-origin: 352.945px 254.466px;" id="elzi4wv0gv36k" class="animable"></path><g id="elriim8r0247l"><path d="M347.36,251.87a6.62,6.62,0,0,1-2.22,5.28c5.79.75,11.14-3.34,14-6.08a16.06,16.06,0,0,1,2.73-4.3l-10.84.56-4.94.25A10.37,10.37,0,0,1,347.36,251.87Z" style="opacity: 0.2; isolation: isolate; transform-origin: 353.505px 252.005px;" class="animable"></path></g><path d="M349.22,217.35s-13,6.1-3.47,18.68C356.47,250.25,349.22,217.35,349.22,217.35Z" style="fill: rgb(38, 50, 56); transform-origin: 346.938px 228.473px;" id="el1sixyk42pgf" class="animable"></path><path d="M371.5,238.57c-2.7,8.13-9.7,16.11-16.88,15.6-13.17-.93-17.48-4.6-16.49-14.29.85-8.74,7.22-21.28,18.25-21.09S375.25,227.3,371.5,238.57Z" style="fill: rgb(235, 179, 118); transform-origin: 355.222px 236.491px;" id="elbe9074e0te" class="animable"></path><path d="M346.57,222.54a48.81,48.81,0,0,0,12.1,1.92s4.74,4,2.2,9.42,3.27,10.16,1.61,17.73c0,0,8.08,1,13.47-15.1,3.94-11.76-5.29-19-16-21.56C350.93,212.85,343,217.69,346.57,222.54Z" style="fill: rgb(38, 50, 56); transform-origin: 361.286px 233.034px;" id="eli7co4a8yhl" class="animable"></path><path d="M352,236.15c-.3,1-1.11,1.73-1.8,1.52s-1-1.22-.66-2.26,1.11-1.72,1.79-1.52S352.3,235.11,352,236.15Z" style="fill: rgb(38, 50, 56); transform-origin: 350.76px 235.781px;" id="elaczo4qezs5a" class="animable"></path><path d="M343.79,233.27c-.3,1-1.07,1.65-1.72,1.45s-.93-1.16-.64-2.16,1.06-1.64,1.72-1.45S344.08,232.27,343.79,233.27Z" style="fill: rgb(38, 50, 56); transform-origin: 342.611px 232.916px;" id="el9t9naii019j" class="animable"></path><path d="M350.44,231.26a.63.63,0,0,1-.23-.2.5.5,0,0,1,.23-.65,4.81,4.81,0,0,1,4.47,0,.49.49,0,0,1,.16.67h0a.52.52,0,0,1-.67.17h0a3.83,3.83,0,0,0-3.56.06A.56.56,0,0,1,350.44,231.26Z" style="fill: rgb(38, 50, 56); transform-origin: 352.654px 230.593px;" id="el6r8u07lr7nd" class="animable"></path><path d="M342.66,226.58a.63.63,0,0,1-.05-.3.5.5,0,0,1,.62-.33,4.81,4.81,0,0,1,3.3,3,.5.5,0,0,1-.33.61h0a.52.52,0,0,1-.61-.33h0a3.81,3.81,0,0,0-2.68-2.34A.57.57,0,0,1,342.66,226.58Z" style="fill: rgb(38, 50, 56); transform-origin: 344.578px 227.752px;" id="eldn52j3ulil9" class="animable"></path><path d="M345.57,235.31l-1.42,4.52a5.78,5.78,0,0,1-2.86-2A13.91,13.91,0,0,0,345.57,235.31Z" style="fill: rgb(213, 135, 69); transform-origin: 343.43px 237.57px;" id="elelefmwmrsok" class="animable"></path><path d="M360.9,241.22s3.56-4.47,5.74-2.16-.65,10.62-4.54,9.55S358.4,243.46,360.9,241.22Z" style="fill: rgb(235, 179, 118); transform-origin: 363.244px 243.551px;" id="eluhifmyu7r4" class="animable"></path><path d="M343.05,223.58s4.92-9.6,10.47-11.09,13.16,1,20,7.51,5.83,15.05.49,21.43C374,241.43,362.64,220.72,343.05,223.58Z" style="fill: rgb(38, 50, 56); transform-origin: 360.692px 226.751px;" id="eldbvt8htugxa" class="animable"></path><g id="elzfj6kwz1un"><path d="M374,241.43a43.72,43.72,0,0,0-9.4-11.11c-5.23-4.36-12.51-8.06-21.55-6.74,0,0,4.92-9.6,10.47-11.09a16,16,0,0,1,9.34.68h0c.62.22,1.25.47,1.88.76a31.56,31.56,0,0,1,8.75,6.06C380.33,226.54,379.34,235.05,374,241.43Z" style="opacity: 0.4; isolation: isolate; transform-origin: 360.682px 226.76px;" class="animable"></path></g><g id="el2rrtzf1v4bj"><path d="M364.6,230.32c-5.23-4.36-12.51-8.06-21.55-6.74,0,0,4.92-9.6,10.47-11.09a16,16,0,0,1,9.34.68h0a10.87,10.87,0,0,1,1.88.76,9.31,9.31,0,0,1,5.09,6.06C371,224.89,365.36,229.7,364.6,230.32Z" style="fill: rgb(255, 255, 255); opacity: 0.5; transform-origin: 356.52px 221.205px;" class="animable"></path></g><path d="M343.05,223.58s-4.65-8.22-3-12.87,21.46,5.84,24.43,19.69C364.51,230.4,351.41,221.69,343.05,223.58Z" style="fill: rgb(38, 50, 56); transform-origin: 352.088px 219.996px;" id="elttqmyog1ebk" class="animable"></path><path d="M352.11,243.55l-6.43,2.79-.17-.43L344,242l.73-.12c1.54-.23,5.05-.72,6-.45a1.48,1.48,0,0,1,.71.44,1.56,1.56,0,0,1,.24.35A3.32,3.32,0,0,1,352.11,243.55Z" style="fill: rgb(38, 50, 56); transform-origin: 348.055px 243.845px;" id="elk6ftii7lly" class="animable"></path><path d="M352.11,243.55l-6.43,2.79-.17-.43c1.25-1.88,3.27-4,6-4A3.14,3.14,0,0,1,352.11,243.55Z" style="fill: rgb(222, 87, 83); transform-origin: 348.81px 244.125px;" id="ela3awh0ah9gj" class="animable"></path><path d="M351.71,242.22l-6.57.8-.4-1.14c1.54-.23,5.05-.72,6-.45a1.48,1.48,0,0,1,.71.44A1.56,1.56,0,0,1,351.71,242.22Z" style="fill: rgb(255, 255, 255); transform-origin: 348.225px 242.185px;" id="eloyrjg0qvcss" class="animable"></path><path d="M399.34,242.39s-2.16-6.33-2.09-6.79,11.88-7.75,12.51-7.17,3.13,9.47,2.74,10.26-7.64,9.81-10.4,5.89" style="fill: rgb(38, 50, 56); transform-origin: 404.895px 236.98px;" id="eldlingkr9vrn" class="animable"></path><path d="M319,224.9s6-2.93,6.28-3.3-2.87-13.89-3.73-13.94-8.93,4.46-9.2,5.3.8,13.2,5.53,12.39" style="fill: rgb(38, 50, 56); transform-origin: 318.804px 216.524px;" id="el39p9swsc04v" class="animable"></path><path d="M346.77,408.57a1,1,0,0,1-.23-1A.7.7,0,0,1,347,407c1-.37,3.17,1.12,3.42,1.29a.18.18,0,0,1,.07.18.15.15,0,0,1-.13.14,9.76,9.76,0,0,1-2.08.3A2.09,2.09,0,0,1,346.77,408.57Zm.32-1.16a.35.35,0,0,0-.2.26.7.7,0,0,0,.13.65c.38.35,1.4.39,2.79.1-.91-.56-2.21-1.21-2.72-1Z" style="fill: rgb(64, 123, 255); transform-origin: 348.492px 407.939px;" id="el5tpom880f35" class="animable"></path><path d="M348.23,406.09a1,1,0,0,1,.69-.78.7.7,0,0,1,.66,0c.86.56.93,3.23.94,3.53a.21.21,0,0,1-.11.17.17.17,0,0,1-.19,0,9.49,9.49,0,0,1-1.45-1.52A2.06,2.06,0,0,1,348.23,406.09Zm1.12-.41a.31.31,0,0,0-.32,0,.68.68,0,0,0-.45.48c-.07.51.49,1.37,1.53,2.33-.07-1.07-.3-2.5-.76-2.79Z" style="fill: rgb(64, 123, 255); transform-origin: 349.375px 407.133px;" id="elz655npdho2f" class="animable"></path><path d="M351,407.6l8.74-.06a.55.55,0,0,1,.58.52h0l.48,6.92a1.39,1.39,0,0,1-1.35,1.39c-3.05,0-4.51-.19-8.35-.2a73,73,0,0,1-10.26-.24c-3.23-.49-2.65-3.67-1.24-3.75,3.34-.19,7.88-2.39,10.06-4.13A2.2,2.2,0,0,1,351,407.6Z" style="fill: rgb(38, 50, 56); transform-origin: 349.636px 411.955px;" id="el5ksjan5rblu" class="animable"></path><g id="eluy8fb48uvxq"><path d="M366.88,280.16c-.29,4.27-.73,9-1.37,14-5.11-3.63-4.23-21.27-4.23-21.27C362.26,276.81,366,279.53,366.88,280.16Z" style="opacity: 0.2; isolation: isolate; transform-origin: 364.051px 283.525px;" class="animable"></path></g><path d="M261.4,376.93a1,1,0,0,1,.23-1,.69.69,0,0,1,.6-.29c1,.07,2.38,2.37,2.54,2.63a.2.2,0,0,1,0,.2.16.16,0,0,1-.18.07,9.89,9.89,0,0,1-2-.63A2.1,2.1,0,0,1,261.4,376.93Zm.79-.91a.3.3,0,0,0-.29.14.65.65,0,0,0-.16.64c.18.48,1.09.95,2.47,1.29-.58-.9-1.48-2-2-2.07Z" style="fill: rgb(64, 123, 255); transform-origin: 263.074px 377.093px;" id="el1870sh70c8o" class="animable"></path><path d="M263.78,375.3a1,1,0,0,1,1-.4.7.7,0,0,1,.58.32c.54.87-.54,3.32-.67,3.59a.23.23,0,0,1-.17.11.18.18,0,0,1-.16-.12,9.09,9.09,0,0,1-.65-2A2.13,2.13,0,0,1,263.78,375.3Zm1.2.12a.34.34,0,0,0-.29-.16.66.66,0,0,0-.61.25c-.29.42-.14,1.44.38,2.76.4-1,.81-2.39.52-2.85Z" style="fill: rgb(64, 123, 255); transform-origin: 264.558px 376.901px;" id="elqn3nmmqt0eo" class="animable"></path><path d="M265.63,377.86l7.92,3.69a.54.54,0,0,1,.3.72h0l-2.54,6.45a1.37,1.37,0,0,1-1.81.68c-2.75-1.34-4-2.11-7.46-3.76a73.64,73.64,0,0,1-9.17-4.62c-2.7-1.83-.82-4.45.49-3.92,3.1,1.26,8.15,1.22,10.87.59A2.12,2.12,0,0,1,265.63,377.86Z" style="fill: rgb(38, 50, 56); transform-origin: 262.694px 383.276px;" id="elsx6m7zphy1g" class="animable"></path><path d="M364.51,301.54l-3.93,55.75H337.29l-4.57-30.73h0a146.4,146.4,0,0,0-20.77,11.15,95.68,95.68,0,0,0-8.06,5.83l-15-19.45s14.21-15.11,24.37-20.52l7.69-10.48Z" style="fill: rgb(38, 50, 56); transform-origin: 326.7px 325.19px;" id="elay3tx9rtf6w" class="animable"></path><path d="M316,228.35l7.12-3s5.95,23.38,19.92,30.56L327.93,268S317.59,247.24,316,228.35Z" style="fill: rgb(38, 50, 56); transform-origin: 329.52px 246.675px;" id="elgcoh2wsa3h8" class="animable"></path><g id="el3ehi2fu3dq1"><path d="M316,228.35l7.12-3s5.95,23.38,19.92,30.56L327.93,268S317.59,247.24,316,228.35Z" style="fill: rgb(255, 255, 255); opacity: 0.3; transform-origin: 329.52px 246.675px;" class="animable"></path></g><path d="M361.9,259.63c18.46-2.39,34.68-18.2,34.68-18.2l4.09,6.67S384.92,273.58,366.88,277Z" style="fill: rgb(38, 50, 56); transform-origin: 381.285px 259.215px;" id="elcxnswvz6ekt" class="animable"></path><g id="el11ewcbwocx6p"><path d="M361.9,259.63c18.46-2.39,34.68-18.2,34.68-18.2l4.09,6.67S384.92,273.58,366.88,277Z" style="fill: rgb(255, 255, 255); opacity: 0.3; transform-origin: 381.285px 259.215px;" class="animable"></path></g><polygon points="358.15 255.89 347.06 259.97 346.72 255.09 342.27 255.92 339.71 263.79 344.65 261.42 345.14 264.98 348.06 262.87 349.9 268.54 363.24 259.43 358.15 255.89" style="fill: rgb(38, 50, 56); transform-origin: 351.475px 261.815px;" id="el4s48oqylzof" class="animable"></polygon><path d="M338,273.74s3.2-3.62,7.68-2.56,7.26,4.87,5.08,9.23-9.47,8.17-9.47,8.17l7.16,1.45-.4,2.38-13.84-2.51v-3s12.92-3.21,13.71-8.07-5.08-6.83-8.21-2.88Z" style="fill: rgb(255, 255, 255); transform-origin: 342.864px 281.698px;" id="elnp0z7ejapzi" class="animable"></path><path d="M345.16,337.65a5.12,5.12,0,0,1,4.39-2.2c2.78.26,4.77,2.31,3.83,5.11s-5,5.71-5,5.71l4.42.26,0,1.46-8.52-.33-.25-1.82s7.47-3,7.54-6-3.63-3.67-5.17-1Z" style="fill: rgb(255, 255, 255); transform-origin: 348.823px 341.718px;" id="el4twujoyop8k" class="animable"></path><polygon points="323.4 222.68 323.96 224.56 315.35 227.56 315.35 224.34 323.4 222.68" style="fill: rgb(38, 50, 56); transform-origin: 319.655px 225.12px;" id="el694x7vhmxd8" class="animable"></polygon><polygon points="397.25 239.83 398.53 238.72 404.12 245.29 402.1 247.9 397.25 239.83" style="fill: rgb(38, 50, 56); transform-origin: 400.685px 243.31px;" id="ell3ldmzv904o" class="animable"></polygon><g id="el44ho6mdc0so"><path d="M332.72,326.56h0a146.4,146.4,0,0,0-20.77,11.15,47,47,0,0,1,12.91-12.53l2.79-10.08Z" style="opacity: 0.2; isolation: isolate; transform-origin: 322.335px 326.405px;" class="animable"></path></g></g></g><g id="freepik--soccer-ball--inject-2" class="animable animator-active" style="transform-origin: 245.895px 190.57px;"><path d="M245.13,191.42s-.88-.23-2.46-.58" style="fill: none; stroke: rgb(64, 123, 255); stroke-linecap: round; stroke-linejoin: round; transform-origin: 243.9px 191.13px;" id="elahx7yzs913l" class="animable"></path><path d="M239.64,190.19a182.51,182.51,0,0,0-26.55-3.52" style="fill: none; stroke: rgb(64, 123, 255); stroke-linecap: round; stroke-linejoin: round; transform-origin: 226.365px 188.43px;" id="el03xj0j0vzhnn" class="animable"></path><path d="M209.13,186.53c-.86,0-1.71,0-2.57,0" style="fill: none; stroke: rgb(64, 123, 255); stroke-linecap: round; stroke-linejoin: round; transform-origin: 207.845px 186.53px;" id="elu9cp26kk8uc" class="animable"></path><path d="M202.91,186.57c-.74,0-1.48.06-2.22.1" style="fill: none; stroke: rgb(64, 123, 255); stroke-linecap: round; stroke-linejoin: round; transform-origin: 201.8px 186.62px;" id="elftz9hi1433p" class="animable"></path><path d="M266.09,183.31s-9.25-2.68-20.52-5" style="fill: none; stroke: rgb(64, 123, 255); stroke-linecap: round; stroke-linejoin: round; transform-origin: 255.83px 180.81px;" id="elbuxs9b7unqe" class="animable"></path><path d="M242.62,177.72c-2.37-.46-4.8-.89-7.22-1.27" style="fill: none; stroke: rgb(64, 123, 255); stroke-linecap: round; stroke-linejoin: round; transform-origin: 239.01px 177.085px;" id="elan2jtz1b2au" class="animable"></path><path d="M227.31,175.4c-1.13-.11-2.25-.2-3.34-.27" style="fill: none; stroke: rgb(64, 123, 255); stroke-linecap: round; stroke-linejoin: round; transform-origin: 225.64px 175.265px;" id="elo4gezk6fb2" class="animable"></path><path d="M219.81,200.12s4.7-.16,11.47.33" style="fill: none; stroke: rgb(64, 123, 255); stroke-linecap: round; stroke-linejoin: round; transform-origin: 225.545px 200.273px;" id="elm7i0cmad81" class="animable"></path><path d="M234.49,200.72c3.13.31,6.55.75,10.08,1.4" style="fill: none; stroke: rgb(64, 123, 255); stroke-linecap: round; stroke-linejoin: round; transform-origin: 239.53px 201.42px;" id="el6rhfb94wkxo" class="animable"></path><path d="M246.33,202.46a83,83,0,0,1,10,2.64" style="fill: none; stroke: rgb(64, 123, 255); stroke-linecap: round; stroke-linejoin: round; transform-origin: 251.33px 203.78px;" id="elswgrcpzrwho" class="animable"></path><g id="el97ge1mjr54h"><circle cx="268.22" cy="190.57" r="19.02" style="fill: rgb(64, 123, 255); transform-origin: 268.22px 190.57px; transform: rotate(-76.72deg);" class="animable"></circle></g><g id="elkqxsn9gj7sk"><path d="M287.23,190.57a18.38,18.38,0,0,1-.22,2.89h0c-.09.62-.22,1.21-.36,1.8a19.07,19.07,0,0,1-10.58,12.63c-.4.18-.81.36-1.23.51a19.1,19.1,0,0,1-6.62,1.19A18.89,18.89,0,0,1,257,205.89a19.09,19.09,0,0,1-7.75-15.32,18.35,18.35,0,0,1,.62-4.77,19,19,0,0,1,18.4-14.25c.52,0,1,0,1.53.07a19,19,0,0,1,17.48,18.95Z" style="fill: rgb(255, 255, 255); opacity: 0.6; transform-origin: 268.265px 190.57px;" class="animable"></path></g><path d="M287,193.47c-.09.62-.22,1.21-.36,1.8l-.11-.18c-1.47.07-2.9.1-4.25.1h-1.47l-5.42,7.47c.26,1.54.51,3.32.67,5.25-.4.18-.81.36-1.23.51-.16-1.93-.4-3.74-.66-5.3l-8-2.6a43.17,43.17,0,0,1-9,3.65l-.18,1.73a18.69,18.69,0,0,1-4.67-5l4.49,2a46.13,46.13,0,0,0,7.91-3.08v-9.62l-9.33-6.61-5.53,2.18a18.93,18.93,0,0,1,6.07-9.71l.4,6.62,9,6.4,8.8-2.87.15-.44a47,47,0,0,0,.49-10.31l-5-3.87a18.89,18.89,0,0,1,7.92,2.45l-1.61,1.1a46.14,46.14,0,0,1-.54,10.94l-.17.53,5.27,7.23c1.86,0,4,0,6.14-.09Z" style="fill: rgb(38, 50, 56); transform-origin: 268.43px 190.005px;" id="elt5dvc7zyipb" class="animable"></path><g id="el3npbyxhshpp"><circle cx="266.09" cy="186.83" r="14.17" style="fill: rgb(255, 255, 255); opacity: 0.2; transform-origin: 266.09px 186.83px;" class="animable"></circle></g></g><g id="freepik--character-1--inject-2" class="animable" style="transform-origin: 145.925px 239.25px;"><g id="freepik--group--inject-2" class="animable" style="transform-origin: 145.925px 239.468px;"><path d="M162.63,243.67s.14-14.88,1.19-19.24,8.09-10.56,8.09-10.56l3.74,2.21s-6.44,9.79-6.42,12.18,1.36,16,1.36,16Z" style="fill: rgb(185, 121, 100); transform-origin: 169.14px 229.065px;" id="eloj5a0lpp04m" class="animable"></path><path d="M172.39,215.71l3.38.82a9.56,9.56,0,0,0,3.52-.92c1.25-.77,4.47-5.94,4.47-5.94s-5.8-4.48-6.84-4.16-6.08,6.58-6.23,7.07S172.39,215.71,172.39,215.71Z" style="fill: rgb(185, 121, 100); transform-origin: 177.221px 211.012px;" id="eleusub2bht4p" class="animable"></path><path d="M189.3,290s3.88,14.37,6,18.32,10.48,8.19,10.48,8.19l3.06-3.08s-8.69-7.86-9.27-10.18-2.71-15.84-2.71-15.84Z" style="fill: rgb(185, 121, 100); transform-origin: 199.07px 301.96px;" id="elqf39xlzzfdp" class="animable"></path><path d="M174.1,251.37c-1-3.4-1.6-10.88-1.6-10.88L159,242.19l-1.18,22.23Z" style="fill: rgb(64, 123, 255); transform-origin: 165.96px 252.455px;" id="elj2213fhsuuj" class="animable"></path><path d="M187,290c-2.77,3.26-6,6.85-9.44,10.5-3.78,4-7.91,8-12.23,11.75l-24.74-44s15.65-3.33,25.57-14.63A7.75,7.75,0,0,1,175.6,252a48.21,48.21,0,0,1,9.93,7.43c10.24,9.65,12.54,16.65,12.54,16.65S193.77,282.06,187,290Z" style="fill: rgb(64, 123, 255); transform-origin: 169.33px 281.658px;" id="elaheijxr7aqo" class="animable"></path><g id="elc3s9x5rwqlc"><path d="M187,290c-2.77,3.26-6,6.85-9.44,10.5-3.78,4-7.91,8-12.23,11.75l-24.74-44s15.65-3.33,25.57-14.63A7.75,7.75,0,0,1,175.6,252a48.21,48.21,0,0,1,9.93,7.43c10.24,9.65,12.54,16.65,12.54,16.65S193.77,282.06,187,290Z" style="fill: rgb(255, 255, 255); opacity: 0.3; transform-origin: 169.33px 281.658px;" class="animable"></path></g><path d="M166.54,265.77l2,1.71-11.08,8.18.92,1.58-1.45,1.33-3.5-4.82.47-.86,1.85,1.06,8.83-5.61-1.45-1.64.92-.93A3.36,3.36,0,0,0,166.54,265.77Z" style="fill: rgb(255, 255, 255); transform-origin: 160.985px 272.17px;" id="el6g64t3uhzfa" class="animable"></path><path d="M177.19,275.4,171.42,270,166,273.68s5.8,4.48,1.45,7.25-6.59-2.13-6.59-2.13L159,280.14A8.53,8.53,0,0,0,165.3,284c4.14.26,8.53-5,3.22-9.89l2.5-1.91,4.73,4.28Z" style="fill: rgb(255, 255, 255); transform-origin: 168.095px 277.005px;" id="elp0ptd0qp8sg" class="animable"></path><path d="M138.35,164.84s11.05,32.64,7.88,84.65L128.7,252s9.88-71.19,4.87-82.32Z" style="fill: rgb(185, 121, 100); transform-origin: 137.751px 208.42px;" id="elr0bkxx5sc9c" class="animable"></path><path d="M181.46,255.26a6.35,6.35,0,0,1-3.42,3.51c-.27.11-.55.21-.85.3a8.91,8.91,0,0,1-1.38.26h0a7.9,7.9,0,0,0,5.84,7.22l5.47,1.47,1.2.32a11.82,11.82,0,0,1,4.15-8.74,16,16,0,0,1,4.32-2.7l-10-4.16-4.56-1.89A10.43,10.43,0,0,1,181.46,255.26Z" style="fill: rgb(185, 121, 100); transform-origin: 186.3px 259.595px;" id="eltlgsclsigx" class="animable"></path><g id="elt01khah722d"><path d="M181.46,255.26a6.35,6.35,0,0,1-3.42,3.51c-.27.11-.55.21-.85.3,4.9,3.16,11.5,1.77,15.28.53a16,16,0,0,1,4.32-2.7l-10-4.16-4.56-1.89A10.43,10.43,0,0,1,181.46,255.26Z" style="opacity: 0.2; isolation: isolate; transform-origin: 186.99px 255.925px;" class="animable"></path></g><path d="M198,224.88s-14.33-.06-11.16,15.38C190.38,257.7,198,224.88,198,224.88Z" style="fill: rgb(38, 50, 56); transform-origin: 192.191px 235.124px;" id="elpb25245zxi" class="animable"></path><path d="M209,253.62c-5.93,6.17-15.68,10.37-21.94,6.83-11.5-6.49-13.82-11.66-8.76-20,4.52-7.53,15.66-16.12,25.54-11.2S217.2,245.05,209,253.62Z" style="fill: rgb(185, 121, 100); transform-origin: 194.672px 244.773px;" id="elghr5pps4jcv" class="animable"></path><path d="M193.34,228.43a23.57,23.57,0,0,0,9.2,8.63s3.46,4-1.15,7.75-1.41,10.58-6.16,16.7c0,0,6.84,4.42,18.65-7.84,8.61-8.94,3.41-19.49-5.21-26.36C201.45,221.55,192.18,222.5,193.34,228.43Z" style="fill: rgb(38, 50, 56); transform-origin: 205.768px 242.869px;" id="el6etfkqwv7va" class="animable"></path><path d="M192.4,243.05c-.72.8-1.75,1.08-2.28.59s-.35-1.51.37-2.32,1.74-1.07,2.28-.6S193.12,242.24,192.4,243.05Z" style="fill: rgb(38, 50, 56); transform-origin: 191.447px 242.185px;" id="elbqwcrsgi90o" class="animable"></path><path d="M186.23,236.92c-.69.77-1.68,1-2.18.57s-.34-1.45.35-2.22,1.67-1,2.18-.57S186.92,236.15,186.23,236.92Z" style="fill: rgb(38, 50, 56); transform-origin: 185.317px 236.095px;" id="elx5lx8yzjg89" class="animable"></path><path d="M193.11,237.94a.56.56,0,0,1-.13-.28.5.5,0,0,1,.5-.48,4.8,4.8,0,0,1,4,2,.5.5,0,0,1-.15.68h0a.52.52,0,0,1-.68-.14h0a3.84,3.84,0,0,0-3.22-1.51A.46.46,0,0,1,193.11,237.94Z" style="fill: rgb(38, 50, 56); transform-origin: 195.267px 238.555px;" id="eltyjsfk0mo6e" class="animable"></path><path d="M188,230.43a.6.6,0,0,1,.08-.29.51.51,0,0,1,.7-.06,4.84,4.84,0,0,1,1.81,4.08.49.49,0,0,1-.54.43h0a.51.51,0,0,1-.43-.54h0a3.84,3.84,0,0,0-1.51-3.22A.52.52,0,0,1,188,230.43Z" style="fill: rgb(38, 50, 56); transform-origin: 189.297px 232.281px;" id="eltmkfezx9b3c" class="animable"></path><path d="M187,239.53,183.73,243a5.75,5.75,0,0,1-1.74-3A13.61,13.61,0,0,0,187,239.53Z" style="fill: rgb(162, 78, 63); transform-origin: 184.495px 241.265px;" id="eljffrwdfn03q" class="animable"></path><path d="M198.26,251.45s5.14-2.51,6.12.51-5.15,9.32-8.2,6.69S195,252.4,198.26,251.45Z" style="fill: rgb(185, 121, 100); transform-origin: 199.559px 254.874px;" id="elvugfjxz5hi" class="animable"></path><path d="M208.83,234.27c-.05-4-8.6-8.32-9.5-12.06s1.49-5.37,1.49-5.37-5.32,1.13-6.45,5.85L193,218.94s-7.79,10.2,9.55,18.12Z" style="fill: rgb(38, 50, 56); transform-origin: 200.043px 226.95px;" id="el3ckscn17hfa" class="animable"></path><path d="M180.91,245.86s3.33-1.06,5.39,1.38" style="fill: none; stroke: rgb(38, 50, 56); stroke-linecap: round; stroke-linejoin: round; transform-origin: 183.605px 246.435px;" id="elti9ad01i82e" class="animable"></path><path d="M144.05,165.43a1,1,0,0,1,.79.67.7.7,0,0,1,0,.67c-.53.87-3.2,1-3.51,1a.21.21,0,0,1-.16-.11.15.15,0,0,1,0-.19,9.48,9.48,0,0,1,1.49-1.48A2.1,2.1,0,0,1,144.05,165.43Zm.44,1.12a.32.32,0,0,0,0-.33.65.65,0,0,0-.49-.43c-.51-.07-1.35.52-2.29,1.58,1.06-.09,2.49-.35,2.78-.82Z" style="fill: rgb(64, 123, 255); transform-origin: 143.031px 166.6px;" id="elf4c0eixfi2" class="animable"></path><path d="M144.37,168.29a1,1,0,0,1-.09,1,.69.69,0,0,1-.55.37c-1,.07-2.68-2-2.87-2.27a.2.2,0,0,1,0-.2.15.15,0,0,1,.17-.08,9.64,9.64,0,0,1,2.07.35A2.08,2.08,0,0,1,144.37,168.29Zm-.66,1a.33.33,0,0,0,.27-.18.65.65,0,0,0,.07-.66c-.24-.45-1.2-.8-2.62-1,.7.82,1.74,1.82,2.28,1.79Z" style="fill: rgb(64, 123, 255); transform-origin: 142.648px 168.384px;" id="eligmiqvpawqn" class="animable"></path><path d="M141.25,168.73l-7,5.29a.54.54,0,0,1-.77-.08h0L129,168.68a1.37,1.37,0,0,1,.25-1.92c2.46-1.8,3.73-2.54,6.81-4.84A72.59,72.59,0,0,1,144.4,156c2.88-1.54,4.32,1.35,3.24,2.26-2.57,2.16-4.88,6.64-5.59,9.34A2.19,2.19,0,0,1,141.25,168.73Z" style="fill: rgb(38, 50, 56); transform-origin: 138.357px 164.851px;" id="elfug3k31rlov" class="animable"></path><path d="M165.3,312.29s-17.4,8.74-34.91,1.18a37.09,37.09,0,0,1-4.86-2.54c-19-11.8-5.22-40.43-5.22-40.43l1.53-14,1.31-12.05,25.16-3.84,2.34,24.21Z" style="fill: rgb(64, 123, 255); transform-origin: 140.391px 278.58px;" id="el0eqnc1k8gua5" class="animable"></path><polygon points="122.63 243.88 149 239.53 149 244.43 121.97 247.97 122.63 243.88" style="fill: rgb(64, 123, 255); transform-origin: 135.485px 243.75px;" id="el4kiec1t2r0d" class="animable"></polygon><g id="el70863olwogx"><polygon points="122.63 243.88 149 239.53 149 244.43 121.97 247.97 122.63 243.88" style="fill: rgb(255, 255, 255); opacity: 0.3; transform-origin: 135.485px 243.75px;" class="animable"></polygon></g><g id="ely6xo2ioptrh"><path d="M126.58,293.7c-2.12,7.42.88,14.82,3.81,19.77a37.09,37.09,0,0,1-4.86-2.54c-19-11.8-5.22-40.43-5.22-40.43l1.53-14c12.18.11,23.32,11.86,23.32,11.86l8.72,15.89-5.46-6.4Z" style="opacity: 0.2; isolation: isolate; transform-origin: 134.681px 284.985px;" class="animable"></path></g><path d="M87.59,295.44S99.81,268.23,112,261s23.86-3.37,33.21,15.4l-17,13.27s-8.52-13.92-11.44-15.15-24,23.55-24,23.55Z" style="fill: rgb(185, 121, 100); transform-origin: 116.4px 277.829px;" id="el5wnnmn4izje" class="animable"></path><path d="M83.47,291.71a1,1,0,0,1,.22-1,.67.67,0,0,1,.6-.29c1,.07,2.39,2.36,2.54,2.63a.19.19,0,0,1,0,.19.16.16,0,0,1-.18.07,8.77,8.77,0,0,1-2-.63A2,2,0,0,1,83.47,291.71Zm.78-.91a.34.34,0,0,0-.29.14.69.69,0,0,0-.16.64c.19.48,1.09,1,2.47,1.3-.57-.91-1.47-2.05-2-2.08Z" style="fill: rgb(64, 123, 255); transform-origin: 85.1372px 291.867px;" id="ellp45txovhum" class="animable"></path><path d="M85.84,290.09a1,1,0,0,1,1-.41.67.67,0,0,1,.58.32c.54.88-.54,3.32-.66,3.6a.21.21,0,0,1-.18.1.17.17,0,0,1-.16-.11,10.62,10.62,0,0,1-.65-2A2.1,2.1,0,0,1,85.84,290.09Zm1.2.11a.3.3,0,0,0-.28-.15.66.66,0,0,0-.62.24c-.28.43-.14,1.44.38,2.76.4-1,.81-2.38.52-2.85Z" style="fill: rgb(64, 123, 255); transform-origin: 86.6172px 291.682px;" id="el7a0fhr1bvf" class="animable"></path><path d="M87.69,292.64l7.92,3.7a.54.54,0,0,1,.3.72h0l-2.54,6.45a1.38,1.38,0,0,1-1.82.68c-2.74-1.34-4-2.11-7.46-3.77a72.89,72.89,0,0,1-9.16-4.62c-2.7-1.84-.81-4.46.49-3.92,3.11,1.26,8.15,1.22,10.87.59A2.18,2.18,0,0,1,87.69,292.64Z" style="fill: rgb(38, 50, 56); transform-origin: 84.7555px 298.06px;" id="elhrmj5z0vv1t" class="animable"></path><path d="M146.1,301.24A67.72,67.72,0,0,1,138.76,286l10.64-8.19-2.6-6.52L124,290l2.36,5.56,8.15-6.27a99.37,99.37,0,0,0,10.7,15,16.2,16.2,0,0,0,15.71,5.23A18,18,0,0,1,146.1,301.24Z" style="fill: rgb(64, 123, 255); transform-origin: 142.46px 290.592px;" id="eloz88zf137f" class="animable"></path><g id="elv7atkokwrw"><path d="M146.1,301.24A67.72,67.72,0,0,1,138.76,286l10.64-8.19-2.6-6.52L124,290l2.36,5.56,8.15-6.27a99.37,99.37,0,0,0,10.7,15,16.2,16.2,0,0,0,15.71,5.23A18,18,0,0,1,146.1,301.24Z" style="fill: rgb(255, 255, 255); opacity: 0.3; transform-origin: 142.46px 290.592px;" class="animable"></path></g><polygon points="178.14 263.26 191.25 263.26 193.08 268.34 177.19 272.36 177.19 265.77 174.45 265.9 175.75 263.26 169.32 261 174.19 256.48 179.86 256.48 178.14 263.26" style="fill: rgb(64, 123, 255); transform-origin: 181.2px 264.42px;" id="el7735e1knbce" class="animable"></polygon><path d="M198.07,276.05c1.57,4.88,2.62,19.39,2.62,19.39l-10.87,3.43-4-8s1.46-6.55,4.76-10.9S198.07,276.05,198.07,276.05Z" style="fill: rgb(64, 123, 255); transform-origin: 193.255px 287.454px;" id="elqoygbmrv3he" class="animable"></path><path d="M205.77,314.65l3.06-1.64a9.5,9.5,0,0,1,3.64,0c1.41.43,5.82,4.63,5.82,4.63s-4.49,5.8-5.57,5.74-7.54-4.84-7.81-5.28S205.77,314.65,205.77,314.65Z" style="fill: rgb(185, 121, 100); transform-origin: 211.579px 318.107px;" id="elhhunnt9sdnp" class="animable"></path></g><path d="M150.78,173.35s7,10.47,3.1,25.6c0,0,9.1-4.53,15.44,6.3,0,0-6.69-13.72,6.33-12.14,0,0-16.63-12,17.33-15.75,0,0-18.29-.82-20.24-3.22s3.07-9.3,3.07-9.3-8.45,6-13.18,4.85-4.79-14.57-4.79-14.57S157.11,169.42,150.78,173.35Z" style="fill: rgb(64, 123, 255); transform-origin: 171.88px 180.185px;" id="elli6siua5gvr" class="animable"></path><g id="elhkofq1wysbu"><path d="M150.78,173.35s7,10.47,3.1,25.6c0,0,9.1-4.53,15.44,6.3,0,0-6.69-13.72,6.33-12.14,0,0-16.63-12,17.33-15.75,0,0-18.29-.82-20.24-3.22s3.07-9.3,3.07-9.3-8.45,6-13.18,4.85-4.79-14.57-4.79-14.57S157.11,169.42,150.78,173.35Z" style="fill: rgb(255, 255, 255); opacity: 0.7; transform-origin: 171.88px 180.185px;" class="animable"></path></g></g><defs>     <filter id="active" height="200%">         <feMorphology in="SourceAlpha" result="DILATED" operator="dilate" radius="2"></feMorphology>                <feFlood flood-color="#32DFEC" flood-opacity="1" result="PINK"></feFlood>        <feComposite in="PINK" in2="DILATED" operator="in" result="OUTLINE"></feComposite>        <feMerge>            <feMergeNode in="OUTLINE"></feMergeNode>            <feMergeNode in="SourceGraphic"></feMergeNode>        </feMerge>    </filter>    <filter id="hover" height="200%">        <feMorphology in="SourceAlpha" result="DILATED" operator="dilate" radius="2"></feMorphology>                <feFlood flood-color="#ff0000" flood-opacity="0.5" result="PINK"></feFlood>        <feComposite in="PINK" in2="DILATED" operator="in" result="OUTLINE"></feComposite>        <feMerge>            <feMergeNode in="OUTLINE"></feMergeNode>            <feMergeNode in="SourceGraphic"></feMergeNode>        </feMerge>            <feColorMatrix type="matrix" values="0   0   0   0   0                0   1   0   0   0                0   0   0   0   0                0   0   0   1   0 "></feColorMatrix>    </filter></defs></svg>